# xmcd
#
# Track frame offsets:
#	150
#	9750
#	20319
#	30116
#	39832
#	51514
#	63616
#	75254
#	86929
#	95963
#	104971
#	116851
#	128982
#	138728
#
# Disc length: 2093 seconds
#
# Revision: 0
# Processed by: cddbd v1.5.2PL0 Copyright (c) Steve Scherf et al.
# Submitted via: EZCDAudioConverter 5.3.0.1
#
DISCID=bd082b0e
DTITLE=A nyughatatlan - Cash only
DYEAR=2019
DGENRE=
TTITLE0=I got Stripes
TTITLE1=Daddy Sang Bass
TTITLE2=Juke Box Blues
TTITLE3=San Quentin
TTITLE4=So Doggone Lonesome
TTITLE5=Jackson
TTITLE6=Ring Of Fire
TTITLE7=Folsom Prison Blues
TTITLE8=Walk The Line
TTITLE9=It Was Jesus
TTITLE10=Cocaine Blues
TTITLE11=Wildwood Flower
TTITLE12=Big River
TTITLE13=Get Rhythm
EXTD=
EXTT0=
EXTT1=
EXTT2=
EXTT3=
EXTT4=
EXTT5=
EXTT6=
EXTT7=
EXTT8=
EXTT9=
EXTT10=
EXTT11=
EXTT12=
EXTT13=
PLAYORDER=
